<svg xmlns="http://www.w3.org/2000/svg" viewBox="0 0 2880 4336.67"><defs><style>.cls-1{fill:#88c5eb;}.cls-2,.cls-4{fill:#fff;}.cls-2{opacity:0.3;}.cls-3{fill:#ffb202;}.cls-5{fill:#86b57c;}.cls-6{fill:#173c33;}.cls-7{fill:none;stroke:#173c33;stroke-miterlimit:10;}.cls-8{fill:#5f8a44;}.cls-9{fill:#f3a39e;}.cls-10{fill:#901832;}.cls-11{fill:#eb7780;}.cls-12{fill:#eb6907;}.cls-13{fill:#975c29;}.cls-14{fill:#e02814;}</style></defs><g id="Layer_2" data-name="Layer 2"><g id="Layer_1-2" data-name="Layer 1"><path class="cls-1" d="M2536.6,425.54a207.48,207.48,0,0,0,214.8-214.8,207.49,207.49,0,0,0-214.8,214.8Z"/><path class="cls-2" d="M229.13,712.4a121.76,121.76,0,0,0-126-126,121.76,121.76,0,0,0,126.05,126Z"/><path class="cls-3" d="M332.28,607.46l2.26,0A101.28,101.28,0,0,1,233.27,711L231,711A101.28,101.28,0,0,1,332.28,607.46m0-1.44A102.73,102.73,0,0,0,229.61,712.41c1.22,0,2.45.07,3.66.07A102.71,102.71,0,0,0,335.94,606.09c-1.22,0-2.44-.07-3.66-.07Z"/><path class="cls-3" d="M493,997.22a95.17,95.17,0,0,1,95.24,97.14l-1.87,0a95.17,95.17,0,0,1-95.25-97.14l1.88,0m0-1.61q-1.73,0-3.45.06A96.85,96.85,0,0,0,586.41,1096c1.15,0,2.29,0,3.44-.06A96.83,96.83,0,0,0,493,995.61Z"/><path class="cls-4" d="M590,1095.94A96.85,96.85,0,0,0,690.25,995.67,96.85,96.85,0,0,0,590,1095.94Z"/><path class="cls-3" d="M2753,1453.26a55.66,55.66,0,0,0,41.47,16.31,55.81,55.81,0,0,0-57.78-57.77A55.72,55.72,0,0,0,2753,1453.26Z"/><path class="cls-5" d="M2678.88,1469.57a55.81,55.81,0,0,0,57.77-57.77,55.79,55.79,0,0,0-57.77,57.77Z"/><path class="cls-3" d="M2695.18,1395.42a55.71,55.71,0,0,0,41.47,16.31,55.79,55.79,0,0,0-57.77-57.77A55.68,55.68,0,0,0,2695.18,1395.42Z"/><path class="cls-6" d="M2736.72,1411.73A55.81,55.81,0,0,0,2794.5,1354a55.79,55.79,0,0,0-57.78,57.77Z"/><path class="cls-3" d="M85.66,2105.51A163.83,163.83,0,0,1,0,2084.89V1955.61a163.53,163.53,0,0,1,37.82,28.25A163.3,163.3,0,0,1,85.66,2105.51Z"/><path class="cls-3" d="M808.93,1128a296.55,296.55,0,0,1,296.69,306.45c-3.21.11-6.45.16-9.65.16a296.58,296.58,0,0,1-296.68-306.46c3.2-.1,6.44-.15,9.64-.15m0-1c-3.54,0-7.07.06-10.61.19A297.77,297.77,0,0,0,1096,1435.61q5.31,0,10.61-.19A297.77,297.77,0,0,0,808.93,1127Z"/><path class="cls-7" d="M489.71,1435.42A297.73,297.73,0,0,0,798,1127.19a297.77,297.77,0,0,0-308.24,308.23Z"/><path class="cls-2" d="M2386.53,4336.61a96.53,96.53,0,0,0,99.94-99.94,96.54,96.54,0,0,0-99.94,99.94Z"/><path class="cls-3" d="M2627.71,3944.7a54.87,54.87,0,0,1,54.88,56h-1.08a54.87,54.87,0,0,1-54.88-56h1.08m0-.93c-.67,0-1.33,0-2,0a55.81,55.81,0,0,0,55.79,57.81c.66,0,1.32,0,2,0a55.8,55.8,0,0,0-55.79-57.8Z"/><path class="cls-8" d="M2567.88,4001.57a55.81,55.81,0,0,0,57.77-57.77,55.79,55.79,0,0,0-57.77,57.77Z"/><path class="cls-3" d="M2569.87,3886.85a54.54,54.54,0,0,1,38.81,16.07,55.1,55.1,0,0,1,16.06,39.9h-1.08a54.54,54.54,0,0,1-38.82-16.07,55.11,55.11,0,0,1-16.06-39.9h1.09m0-.93c-.67,0-1.33,0-2,0a55.78,55.78,0,0,0,55.78,57.8c.66,0,1.33,0,2,0a55.8,55.8,0,0,0-55.78-57.81Z"/><path class="cls-4" d="M2625.72,3943.73A55.81,55.81,0,0,0,2683.5,3886a55.79,55.79,0,0,0-57.78,57.77Z"/><path class="cls-3" d="M85.66,3729.51A163.83,163.83,0,0,1,0,3708.89V3579.61a163.53,163.53,0,0,1,37.82,28.25A163.3,163.3,0,0,1,85.66,3729.51Z"/><path class="cls-3" d="M593.43,3384.61a95.17,95.17,0,0,1,95.25,97.14c-.63,0-1.26,0-1.88,0a95.2,95.2,0,0,1-95.25-97.14l1.88,0m0-1.61q-1.73,0-3.45.06a96.86,96.86,0,0,0,96.82,100.33q1.73,0,3.45-.06A96.85,96.85,0,0,0,593.43,3383Z"/><path class="cls-8" d="M489.59,3483.33a96.85,96.85,0,0,0,100.26-100.27,96.85,96.85,0,0,0-100.26,100.27Z"/><path class="cls-3" d="M1752.42,90.12a120.87,120.87,0,0,0,90,35.41A121.2,121.2,0,0,0,1717,.08,120.91,120.91,0,0,0,1752.42,90.12Z"/><path class="cls-6" d="M1591.38,125.53a120.87,120.87,0,0,0,90-35.41,120.86,120.86,0,0,0,35.42-90,121.2,121.2,0,0,0-125.46,125.45Z"/><path class="cls-1" d="M2575.53,2957.61a96.53,96.53,0,0,0,99.94-99.94,96.54,96.54,0,0,0-99.94,99.94Z"/><path class="cls-4" d="M267.3,2233.22a128.76,128.76,0,0,0,133.31,133.31A128.78,128.78,0,0,0,267.3,2233.22Z"/><path class="cls-3" d="M266.79,2233.21a108.62,108.62,0,0,0-112.45,112.44,108.62,108.62,0,0,0,112.45-112.44Z"/><path class="cls-3" d="M901,3164.94a137.43,137.43,0,0,1,137.56,140.31l-2.7,0A137.47,137.47,0,0,1,898.27,3165l2.72,0m0-2.33c-1.67,0-3.33,0-5,.09a139.88,139.88,0,0,0,139.85,144.91q2.49,0,5-.09A139.9,139.9,0,0,0,901,3162.61Z"/><path class="cls-4" d="M1041,3307.52a139.88,139.88,0,0,0,144.84-144.82A139.91,139.91,0,0,0,1041,3307.52Z"/><polygon class="cls-9" points="97.69 1291.3 109.3 1291.3 109.3 1266.39 134.21 1266.39 134.21 1254.79 109.3 1254.79 109.3 1229.87 97.69 1229.87 97.69 1254.79 72.78 1254.79 72.78 1266.39 97.69 1266.39 97.69 1291.3"/><polygon class="cls-9" points="1323.78 1027.68 1323.78 1002.77 1348.69 1002.77 1348.69 991.17 1323.78 991.17 1323.78 966.25 1312.18 966.25 1312.18 991.17 1287.26 991.17 1287.26 1002.77 1312.18 1002.77 1312.18 1027.68 1323.78 1027.68"/><polygon class="cls-10" points="215.22 216.25 215.22 191.34 240.13 191.34 240.13 179.73 215.22 179.73 215.22 154.82 203.62 154.82 203.62 179.73 178.7 179.73 178.7 191.34 203.62 191.34 203.62 216.25 215.22 216.25"/><ellipse class="cls-11" cx="2509.32" cy="974.94" rx="65.68" ry="65.36"/><circle class="cls-12" cx="2643.98" cy="2419.13" r="37.6"/><circle class="cls-13" cx="2388.2" cy="3522.63" r="17.47"/><path class="cls-12" d="M2880,3685.27a71.87,71.87,0,0,1,0-143.74Z"/><path class="cls-14" d="M321.77,4251.61a39.27,39.27,0,1,1-78.54,0H221.61a60.89,60.89,0,1,0,121.78,0Z"/></g></g></svg>