<svg xmlns="http://www.w3.org/2000/svg" viewBox="0 0 277.19 477.11"><defs><style>.cls-1,.cls-2{fill:#fff;}.cls-2,.cls-3{opacity:0.5;}</style></defs><g id="Layer_2" data-name="Layer 2"><g id="Layer_1-2" data-name="Layer 1"><path class="cls-1" d="M92.65,203.74a35,35,0,1,1,0,70.07Z"/><polygon class="cls-2" points="42.96 464.66 84.68 422.93 42.96 422.93 42.96 464.66"/><polygon class="cls-1" points="42.96 422.93 84.68 422.93 42.96 381.21 42.96 422.93"/><polygon class="cls-2" points="43.14 381.21 1.42 422.93 43.14 422.93 43.14 381.21"/><polygon class="cls-1" points="43.14 422.93 1.42 422.93 43.14 464.66 43.14 422.93"/><polygon class="cls-2" points="256.45 11.89 218.74 49.6 256.45 49.6 256.45 11.89"/><polygon class="cls-1" points="218.74 49.6 256.45 87.31 256.45 49.6 218.74 49.6"/><polygon class="cls-1" points="173.64 49.76 223.53 0.91 254.63 0.91 204.75 49.76 173.64 49.76"/><polygon class="cls-2" points="173.64 49.76 212.08 87.17 243.19 87.17 204.75 49.76 173.64 49.76"/><path class="cls-2" d="M105,32A41.52,41.52,0,0,0,136,44.14,41.64,41.64,0,0,0,92.84,1,41.52,41.52,0,0,0,105,32Z"/><path class="cls-2" d="M148.46,75.42A41.49,41.49,0,0,0,179.4,87.59a41.64,41.64,0,0,0-43.11-43.11A41.52,41.52,0,0,0,148.46,75.42Z"/><path class="cls-1" d="M148.46,13.2a41.52,41.52,0,0,0-12.17,30.94A41.52,41.52,0,0,0,167.23,32,41.56,41.56,0,0,0,179.4,1,41.56,41.56,0,0,0,148.46,13.2Z"/><path class="cls-1" d="M105,56.65A41.52,41.52,0,0,0,92.84,87.59,41.64,41.64,0,0,0,136,44.48,41.56,41.56,0,0,0,105,56.65Z"/><circle class="cls-1" cx="42.98" cy="19.07" r="19.07"/><g class="cls-3"><path class="cls-1" d="M27.92,87.81a15.06,15.06,0,0,1,30.11,0h27.6a42.66,42.66,0,0,0-85.31,0Z"/></g><g class="cls-3"><path class="cls-1" d="M134.8,283.81a50.26,50.26,0,1,1,0,100.51v92.13a142.39,142.39,0,1,0,0-284.77Z"/></g><path class="cls-1" d="M43,102.6A79.35,79.35,0,0,1,0,145.39a79.33,79.33,0,0,1,43,42.78,79.33,79.33,0,0,1,43-42.78A79.35,79.35,0,0,1,43,102.6Z"/><polygon class="cls-2" points="13.43 121.8 16.85 121.8 16.85 114.48 24.17 114.48 24.17 111.06 16.85 111.06 16.85 103.74 13.43 103.74 13.43 111.06 6.11 111.06 6.11 114.48 13.43 114.48 13.43 121.8"/><polygon class="cls-1" points="69.13 121.8 72.55 121.8 72.55 114.48 79.87 114.48 79.87 111.06 72.55 111.06 72.55 103.74 69.13 103.74 69.13 111.06 61.81 111.06 61.81 114.48 69.13 114.48 69.13 121.8"/><polygon class="cls-1" points="13.43 187.03 16.85 187.03 16.85 179.71 24.17 179.71 24.17 176.3 16.85 176.3 16.85 168.97 13.43 168.97 13.43 176.3 6.11 176.3 6.11 179.71 13.43 179.71 13.43 187.03"/><polygon class="cls-2" points="69.13 187.03 72.55 187.03 72.55 179.71 79.87 179.71 79.87 176.3 72.55 176.3 72.55 168.97 69.13 168.97 69.13 176.3 61.81 176.3 61.81 179.71 69.13 179.71 69.13 187.03"/><path class="cls-1" d="M43.84,196.65h0a16.48,16.48,0,0,1,16.48,16.48v0a16.48,16.48,0,0,1-16.48,16.48H27.35a0,0,0,0,1,0,0V213.13A16.48,16.48,0,0,1,43.84,196.65Z" transform="translate(-137.87 93.42) rotate(-45)"/><path class="cls-1" d="M43.84,247.83h0a16.48,16.48,0,0,1,16.48,16.48v0a16.48,16.48,0,0,1-16.48,16.48H27.35a0,0,0,0,1,0,0V264.31a16.48,16.48,0,0,1,16.48-16.48Z" transform="translate(261.73 420.21) rotate(135)"/><path class="cls-2" d="M69.43,222.24h0a16.48,16.48,0,0,1,16.48,16.48v0A16.48,16.48,0,0,1,69.43,255.2H52.94a0,0,0,0,1,0,0V238.72a16.48,16.48,0,0,1,16.48-16.48Z" transform="translate(189.14 20.83) rotate(45)"/><path class="cls-2" d="M18.24,222.24h0a16.48,16.48,0,0,1,16.48,16.48v0A16.48,16.48,0,0,1,18.24,255.2H1.76a0,0,0,0,1,0,0V238.72A16.48,16.48,0,0,1,18.24,222.24Z" transform="translate(-137.66 420.42) rotate(-135)"/><polygon class="cls-1" points="93.55 411.7 92.65 477.11 119.48 450.28 120.37 384.87 93.55 411.7"/><path class="cls-1" d="M6.07,358.5H3.16a.81.81,0,0,1-.92-.93v-2.44a.81.81,0,0,1,.92-.93H4.82q4.23,0,5.95-2.38a19.4,19.4,0,0,0,2.52-5.49H11.37a1.18,1.18,0,0,1-1.13-.93L.52,315.3q-.27-.93.66-.93H4.35a1.11,1.11,0,0,1,1.13.93L14,342.56h.27l8.53-27.26a1,1,0,0,1,1.06-.93h3c.75,0,1,.33.8,1l-9.86,31.43a24,24,0,0,1-4.2,8.67C12,357.48,9.43,358.5,6.07,358.5Z"/><path class="cls-1" d="M57.15,348.11h-14a9.79,9.79,0,0,1-7.18-2.58,9.68,9.68,0,0,1-2.61-7.21V324.16A9.69,9.69,0,0,1,35.94,317a9.79,9.79,0,0,1,7.18-2.58h5.56A9.67,9.67,0,0,1,55.83,317a9.76,9.76,0,0,1,2.58,7.21v8.41q0,1-.93,1H38.76c-.44,0-.67.2-.67.59v4c0,3.84,1.86,5.75,5.56,5.75h13.5a.82.82,0,0,1,.93.93v2.38C58.08,347.83,57.77,348.11,57.15,348.11ZM38.76,330.05H53.05a.58.58,0,0,0,.66-.66V324.3c0-3.8-1.85-5.69-5.56-5.69h-4.5c-3.7,0-5.56,1.89-5.56,5.69v5.09A.59.59,0,0,0,38.76,330.05Z"/><path class="cls-1" d="M79.11,348.11H75.67a9.79,9.79,0,0,1-7.18-2.58,9.68,9.68,0,0,1-2.61-7.21V324.16A9.69,9.69,0,0,1,68.49,317a9.79,9.79,0,0,1,7.18-2.58H90a.82.82,0,0,1,.93.93v31.89a.82.82,0,0,1-.93.92h-3a.81.81,0,0,1-.92-.92v-2.58h-.27Q84.21,348.11,79.11,348.11Zm7-10.32V319.2c0-.4-.23-.59-.67-.59H76.2c-3.66,0-5.49,1.91-5.49,5.75v13.76q0,5.76,5.49,5.76H80a6.18,6.18,0,0,0,4.57-1.59A6.09,6.09,0,0,0,86.13,337.79Z"/><path class="cls-1" d="M104,348.11h-3a.82.82,0,0,1-.93-.92V315.3a.82.82,0,0,1,.93-.93h3a.81.81,0,0,1,.92.93v2.64h.27a5.76,5.76,0,0,1,2.51-2.51,8.73,8.73,0,0,1,4.37-1.06h2.58c.57,0,.86.31.86.93v2.45a1.05,1.05,0,0,1-.2.69.68.68,0,0,1-.66.17h-3.57a5.79,5.79,0,0,0-4.57,1.78,7.1,7.1,0,0,0-1.59,4.9v21.9A.81.81,0,0,1,104,348.11Z"/><path class="cls-1" d="M132.9,348.11H121.12a.82.82,0,0,1-.92-.92v-2.32c0-.57.31-.86.92-.86h11.12q5.16,0,5.16-3.84v-1.25a4.82,4.82,0,0,0-3.38-4.83l-7.8-3.31a11.5,11.5,0,0,1-4.83-3.28,7.94,7.94,0,0,1-1.46-5q0-8.14,8.93-8.14h10.85a.82.82,0,0,1,.93.93v2.31c0,.58-.31.86-.93.86h-10a5.56,5.56,0,0,0-3.6,1,2.91,2.91,0,0,0-1.23,2.31v1.13q0,2.77,3.78,4.23l7.8,3.51a8.61,8.61,0,0,1,4.67,3.5,12.49,12.49,0,0,1,1.22,6Q142.36,348.12,132.9,348.11Z"/></g></g></svg>