<svg xmlns="http://www.w3.org/2000/svg" viewBox="0 0 217.43 44.36"><defs><style>.cls-1,.cls-2{fill:#fff;}.cls-1{opacity:0.5;}</style></defs><g id="Layer_2" data-name="Layer 2"><g id="Layer_1-2" data-name="Layer 1"><path class="cls-1" d="M186.53,23.65h0A9.37,9.37,0,0,1,195.9,33v0a9.37,9.37,0,0,1-9.37,9.37h-9.37a0,0,0,0,1,0,0V33a9.37,9.37,0,0,1,9.37-9.37Z" transform="translate(373.05 66.04) rotate(180)"/><path class="cls-2" d="M207.08,23.65h0A9.37,9.37,0,0,1,216.45,33v0a9.37,9.37,0,0,1-9.37,9.37h-9.37a0,0,0,0,1,0,0V33A9.37,9.37,0,0,1,207.08,23.65Z" transform="matrix(0, 1, -1, 0, 240.1, -174.06)"/><path class="cls-2" d="M181.75,16.12a19,19,0,0,0,14.14,5.56A19,19,0,0,0,176.19,2,19,19,0,0,0,181.75,16.12Z"/><path class="cls-1" d="M211.86,16.12A19,19,0,0,0,217.42,2a19,19,0,0,0-19.7,19.7A19,19,0,0,0,211.86,16.12Z"/><polygon class="cls-2" points="137.96 20.67 126.84 9.24 126.84 0 137.96 11.42 137.96 20.67"/><polygon class="cls-1" points="137.96 20.67 149.07 9.24 149.07 0 137.96 11.42 137.96 20.67"/><polygon class="cls-2" points="136.08 22.41 124.65 33.52 115.41 33.52 126.83 22.41 136.08 22.41"/><polygon class="cls-1" points="136.08 22.41 124.65 11.29 115.41 11.29 126.83 22.41 136.08 22.41"/><polygon class="cls-2" points="139.77 22.41 151.19 11.29 160.44 11.29 149.01 22.41 139.77 22.41"/><polygon class="cls-1" points="139.77 22.41 151.19 33.52 160.44 33.52 149.01 22.41 139.77 22.41"/><polygon class="cls-2" points="137.96 23.7 149.07 35.12 149.07 44.36 137.96 32.94 137.96 23.7"/><polygon class="cls-1" points="137.96 23.7 126.84 35.12 126.84 44.36 137.96 32.94 137.96 23.7"/><polygon class="cls-2" points="137.96 23.7 149.07 35.12 149.07 44.36 137.96 32.94 137.96 23.7"/><polygon class="cls-2" points="59.13 25.23 57.97 25.23 57.97 27.74 55.46 27.74 55.46 28.91 57.97 28.91 57.97 31.42 59.13 31.42 59.13 28.91 61.64 28.91 61.64 27.74 59.13 27.74 59.13 25.23"/><polygon class="cls-2" points="72.58 44.33 73.75 44.33 73.75 41.82 76.25 41.82 76.25 40.65 73.75 40.65 73.75 38.14 72.58 38.14 72.58 40.65 70.07 40.65 70.07 41.82 72.58 41.82 72.58 44.33"/><polygon class="cls-2" points="64.53 18.48 64.53 15.97 67.04 15.97 67.04 14.8 64.53 14.8 64.53 12.29 63.36 12.29 63.36 14.8 60.85 14.8 60.85 15.97 63.36 15.97 63.36 18.48 64.53 18.48"/><polygon class="cls-1" points="59.13 13 59.13 10.49 61.64 10.49 61.64 9.32 59.13 9.32 59.13 6.81 57.97 6.81 57.97 9.32 55.46 9.32 55.46 10.49 57.97 10.49 57.97 13 59.13 13"/><polygon class="cls-2" points="68.14 12.29 69.3 12.29 69.3 9.78 71.81 9.78 71.81 8.62 69.3 8.62 69.3 6.11 68.14 6.11 68.14 8.62 65.63 8.62 65.63 9.78 68.14 9.78 68.14 12.29"/><path class="cls-2" d="M63.21,44.33A14.3,14.3,0,0,1,71,36.61a14.28,14.28,0,0,1-7.75-7.71,14.35,14.35,0,0,1-7.75,7.71A14.37,14.37,0,0,1,63.21,44.33Z"/><path class="cls-1" d="M59,23.14A39.28,39.28,0,0,1,80.26,44.33a39.33,39.33,0,0,1,21.29-21.19Z"/><path class="cls-2" d="M80.26,2A39.28,39.28,0,0,1,59,23.14h42.57A39.33,39.33,0,0,1,80.26,2Z"/><path class="cls-1" d="M6.76,25.69a10.45,10.45,0,1,1,20.9,0Z"/><circle class="cls-1" cx="6.28" cy="7.14" r="3.79"/><circle class="cls-2" cx="31.28" cy="20.99" r="1.76"/><path class="cls-2" d="M0,11.26A6.28,6.28,0,0,1,0,23.82Z"/><path class="cls-1" d="M34.42,17.83a7.24,7.24,0,1,1,0-14.47Z"/><circle class="cls-2" cx="17.21" cy="8.5" r="5.14"/><path class="cls-2" d="M28.31,25.71a11.1,11.1,0,1,1-22.2,0H0a17.21,17.21,0,0,0,34.42,0Z"/></g></g></svg>