<svg xmlns="http://www.w3.org/2000/svg" viewBox="0 0 2683.53 4891.75"><defs><style>.cls-1{fill:#ffb202;}.cls-2,.cls-3{fill:#fff;}.cls-3,.cls-5{opacity:0.3;}.cls-4{fill:#5f8a44;}.cls-5{fill:#8eb837;}</style></defs><g id="Layer_2" data-name="Layer 2"><g id="Layer_1-2" data-name="Layer 1"><path class="cls-1" d="M1808.88,3.24A190.6,190.6,0,0,1,1999.64,197.8c-1.26,0-2.51,0-3.76,0a190.27,190.27,0,0,1-71.81-14,189.6,189.6,0,0,1-63.13-41.9,189.24,189.24,0,0,1-43.17-66.33,190.43,190.43,0,0,1-12.66-72.37l3.77,0m0-3.24c-2.31,0-4.61,0-6.92.12a193.6,193.6,0,0,0,56.69,144.14,193.53,193.53,0,0,0,137.23,56.81c2.31,0,4.6,0,6.91-.12A194,194,0,0,0,1808.88,0Z"/><path class="cls-2" d="M2003,201a193.61,193.61,0,0,0,144.16-56.69A193.6,193.6,0,0,0,2203.88.12,194,194,0,0,0,2003,201Z"/><path class="cls-3" d="M2575.53,931.69a96.53,96.53,0,0,0,99.94-99.94,96.54,96.54,0,0,0-99.94,99.94Z"/><path class="cls-3" d="M269.43,788.11A163.56,163.56,0,0,0,100.1,618.79,163.57,163.57,0,0,0,269.43,788.11Z"/><path class="cls-1" d="M408,647.15l3,0A136,136,0,0,1,275,786.29c-1,0-2,0-3,0a136,136,0,0,1,136-139.1m0-1.93A137.95,137.95,0,0,0,270.09,788.13c1.63.06,3.28.09,4.91.09A138,138,0,0,0,412.91,645.3c-1.63,0-3.27-.08-4.91-.08Z"/><path class="cls-1" d="M493,1228.3a95.17,95.17,0,0,1,95.24,97.14l-1.87,0a95.17,95.17,0,0,1-95.25-97.14l1.88,0m0-1.62c-1.15,0-2.3,0-3.45.07a96.83,96.83,0,0,0,96.82,100.32c1.15,0,2.29,0,3.44-.06A96.85,96.85,0,0,0,493,1226.68Z"/><path class="cls-2" d="M590,1327a96.84,96.84,0,0,0,100.27-100.26A96.85,96.85,0,0,0,590,1327Z"/><path class="cls-1" d="M2627.71,1919.77a54.53,54.53,0,0,1,38.82,16.08,55.08,55.08,0,0,1,16.06,39.89h-1.08a54.5,54.5,0,0,1-38.82-16.07,55.09,55.09,0,0,1-16.06-39.9h1.08m0-.93c-.67,0-1.33,0-2,0a55.8,55.8,0,0,0,55.79,57.8l2,0a55.81,55.81,0,0,0-55.79-57.81Z"/><path class="cls-4" d="M2567.88,1976.65a55.81,55.81,0,0,0,57.77-57.77,55.79,55.79,0,0,0-57.77,57.77Z"/><path class="cls-1" d="M2569.87,1861.93a54.54,54.54,0,0,1,38.81,16.07,55.09,55.09,0,0,1,16.06,39.9h-1.08a54.58,54.58,0,0,1-38.82-16.07,55.13,55.13,0,0,1-16.06-39.9h1.09m0-.93c-.67,0-1.33,0-2,0a55.78,55.78,0,0,0,55.78,57.81c.67,0,1.33,0,2,0a55.8,55.8,0,0,0-55.78-57.8Z"/><path class="cls-2" d="M2625.72,1918.8A55.79,55.79,0,0,0,2683.5,1861a55.81,55.81,0,0,0-57.78,57.77Z"/><path class="cls-1" d="M593.43,1359.69a95.17,95.17,0,0,1,95.25,97.14l-1.88,0a95.2,95.2,0,0,1-95.25-97.14l1.88,0m0-1.61c-1.16,0-2.3,0-3.45.06a96.85,96.85,0,0,0,96.82,100.32q1.73,0,3.45-.06a96.85,96.85,0,0,0-96.82-100.32Z"/><path class="cls-4" d="M489.59,1458.4a96.84,96.84,0,0,0,100.26-100.26A96.85,96.85,0,0,0,489.59,1458.4Z"/><path class="cls-3" d="M2362.53,4891.69a96.53,96.53,0,0,0,99.94-99.94,96.54,96.54,0,0,0-99.94,99.94Z"/><path class="cls-1" d="M2627.71,4175.77a54.53,54.53,0,0,1,38.82,16.08,55.08,55.08,0,0,1,16.06,39.89h-1.08a54.5,54.5,0,0,1-38.82-16.07,55.09,55.09,0,0,1-16.06-39.9h1.08m0-.93c-.67,0-1.33,0-2,0a55.8,55.8,0,0,0,55.79,57.8l2,0a55.81,55.81,0,0,0-55.79-57.81Z"/><path class="cls-4" d="M2567.88,4232.65a55.81,55.81,0,0,0,57.77-57.77,55.79,55.79,0,0,0-57.77,57.77Z"/><path class="cls-1" d="M2569.87,4117.93a54.54,54.54,0,0,1,38.81,16.07,55.09,55.09,0,0,1,16.06,39.9h-1.08a54.58,54.58,0,0,1-38.82-16.07,55.13,55.13,0,0,1-16.06-39.9h1.09m0-.93c-.67,0-1.33,0-2,0a55.78,55.78,0,0,0,55.78,57.81c.66,0,1.33,0,2,0a55.8,55.8,0,0,0-55.78-57.8Z"/><path class="cls-2" d="M2625.72,4174.8A55.79,55.79,0,0,0,2683.5,4117a55.81,55.81,0,0,0-57.78,57.77Z"/><path class="cls-1" d="M85.66,4592.58A163.83,163.83,0,0,1,0,4572V4442.68a163.86,163.86,0,0,1,37.82,28.26A163.28,163.28,0,0,1,85.66,4592.58Z"/><path class="cls-1" d="M593.43,3615.69a95.17,95.17,0,0,1,95.25,97.14l-1.88,0a95.2,95.2,0,0,1-95.25-97.14l1.88,0m0-1.61q-1.73,0-3.45.06a96.85,96.85,0,0,0,96.82,100.32q1.73,0,3.45-.06a96.85,96.85,0,0,0-96.82-100.32Z"/><path class="cls-4" d="M489.59,3714.4a96.84,96.84,0,0,0,100.26-100.26A96.85,96.85,0,0,0,489.59,3714.4Z"/><path class="cls-1" d="M2009.94,234.31a190.62,190.62,0,0,1,190.79,194.57l-3.77,0a190.65,190.65,0,0,1-190.78-194.56c1.26,0,2.52,0,3.76,0m0-3.23q-3.45,0-6.91.12a194,194,0,0,0,193.93,201c2.31,0,4.61,0,6.92-.12a194,194,0,0,0-193.94-200.95Z"/><path class="cls-4" d="M1802,432A194,194,0,0,0,2002.79,231.2,194,194,0,0,0,1802,432Z"/><path class="cls-5" d="M2575.53,3188.69a96.53,96.53,0,0,0,99.94-99.94,96.54,96.54,0,0,0-99.94,99.94Z"/><path class="cls-5" d="M269.43,3045.11A163.56,163.56,0,0,0,100.1,2875.79a163.57,163.57,0,0,0,169.33,169.32Z"/><path class="cls-1" d="M408,2904.15l3,0a136,136,0,0,1-136,139.11c-1,0-2,0-3,0a136,136,0,0,1,136-139.1m0-1.93a137.95,137.95,0,0,0-137.91,142.91c1.63.06,3.28.09,4.91.09A138,138,0,0,0,412.91,2902.3c-1.63-.05-3.27-.08-4.91-.08Z"/><path class="cls-1" d="M2156.52,3500.06a80.49,80.49,0,0,1,57.3,23.72,81.38,81.38,0,0,1,23.71,58.9l-1.6,0a80.5,80.5,0,0,1-57.3-23.73,81.32,81.32,0,0,1-23.71-58.9h1.6m0-1.38q-1.47,0-2.94.06a82.37,82.37,0,0,0,82.35,85.33c1,0,2,0,2.93-.05a82.37,82.37,0,0,0-82.34-85.34Z"/><path class="cls-2" d="M2239,3584a82.36,82.36,0,0,0,85.29-85.28A82.38,82.38,0,0,0,2239,3584Z"/></g></g></svg>